<?xml version="1.0" standalone="no"?>
<!DOCTYPE svg PUBLIC "-//W3C//DTD SVG 20010904//EN"
 "http://www.w3.org/TR/2001/REC-SVG-20010904/DTD/svg10.dtd">
<svg version="1.0" xmlns="http://www.w3.org/2000/svg"
 width="204.000000pt" height="192.000000pt" viewBox="0 0 204.000000 192.000000"
 preserveAspectRatio="xMidYMid meet">
<metadata>
Created by potrace 1.10, written by Peter Selinger 2001-2011
</metadata>
<g transform="translate(0.000000,192.000000) scale(0.100000,-0.100000)"
fill="#000000" stroke="none">
<path d="M500 1593 c1 -5 26 -27 57 -50 187 -141 391 -372 507 -576 l27 -47
-28 -25 c-37 -34 -172 -125 -184 -125 -16 0 -128 59 -213 113 -115 72 -222
155 -325 252 -49 47 -91 85 -95 85 -3 0 -6 -159 -6 -354 0 -420 -13 -382 154
-462 154 -74 273 -98 451 -91 85 3 157 12 210 26 109 28 269 109 359 181 124
100 189 188 304 410 41 80 92 168 113 197 21 29 35 54 31 57 -5 3 -42 14 -82
25 -129 36 -260 25 -379 -30 -75 -35 -95 -51 -212 -165 -47 -46 -89 -84 -91
-84 -3 0 -8 15 -11 34 -13 79 -164 276 -355 464 l-145 142 324 0 325 0 26 -27
c50 -53 114 -167 162 -285 16 -41 42 -54 30 -15 -38 126 -148 322 -193 347
-23 12 -761 14 -761 3z m1236 -408 c31 -8 60 -17 63 -20 3 -3 -3 -18 -12 -33
-9 -15 -53 -97 -98 -183 -93 -182 -130 -229 -207 -267 -51 -24 -68 -27 -152
-26 -79 1 -111 6 -185 32 -118 40 -185 69 -185 80 0 5 24 25 54 46 54 37 106
88 106 105 0 10 104 117 171 175 60 52 130 86 181 87 24 1 54 5 68 9 41 13
135 11 196 -5z m-1399 -85 c190 -172 482 -360 537 -346 20 5 76 -10 141 -39
51 -22 139 -55 160 -60 11 -2 36 -8 56 -13 37 -10 168 -9 205 1 38 10 98 38
116 54 10 9 21 14 24 11 3 -3 -25 -32 -61 -64 -37 -33 -81 -72 -98 -88 -70
-63 -201 -136 -312 -174 -217 -73 -436 -65 -661 26 -67 27 -160 86 -168 107
-3 9 -6 156 -6 326 0 344 -5 324 67 259z"/>
</g>
</svg>
